{"title":"The Heat 2013.Unrated.1080p.BluRay.x264 . NVEE","uid":9058046,"size":2642848230,"categoryP":"video","categoryS":"hd___movies","magnet":"?xt=urn:btih:c9e620f22fda8698b0b300d0cdf56a3842b31e40&amp;dn=The+Heat+2013.Unrated.1080p.BluRay.x264+.+NVEE&amp;tr=udp%3A%2F%2Ftracker.openbittorrent.com%3A80&amp;tr=udp%3A%2F%2Fopen.demonii.com%3A1337&amp;tr=udp%3A%2F%2Ftracker.coppersurfer.tk%3A6969&amp;tr=udp%3A%2F%2Fexodus.desync.com%3A6969","seeders":2,"leechers":0,"uploader":".NVEE","files":4,"time":1381991277,"description":"FULL_INFOs\n\n\n99.99% --- SYNCED GUARANTEED \n\n&quot;Totally scrutinized / analyzed to be a verified torrent.&quot;\n___________________________________________\n\nSource : Blu-Ray ~ 1080p\n\nMy Media Player of Choice &quot;VLC Media Player via HDMI&quot;\n\nSpoken Language : English Only\n\nAudio : 6 ~ Channels Only\n\nDon't delete torrent link,... Please seed . NVEE\n_____________________________________\n\n\n &lt;a href=&quot;\nhttp://www.imdb.com/title/tt2404463/&quot; rel=&quot;nofollow&quot; target=&quot;_NEW&quot;&gt;\nhttp://www.imdb.com/title/tt2404463/&lt;/a&gt;\n\n\n\nSubs Info : MULTI_SUBS\n\n &lt;a href=&quot;\nhttp://www.subtitleseeker.com/2404463/The+Heat/Subtitles/&quot; rel=&quot;nofollow&quot; target=&quot;_NEW&quot;&gt;\nhttp://www.subtitleseeker.com/2404463/The+Heat/Subtitles/&lt;/a&gt;\n\n275 Subtitles In 28 Languages Use Link Provided \n &lt;a href=&quot;\nhttp://www.subtitleseeker.com/2404463/The+Heat/Subtitles/&quot; rel=&quot;nofollow&quot; target=&quot;_NEW&quot;&gt;\nhttp://www.subtitleseeker.com/2404463/The+Heat/Subtitles/&lt;/a&gt;\n\n275 Subtitles In 28 Languages Only @ SubtitleSeeker\n &lt;a href=&quot;\nhttp://www.subtitleseeker.com/2404463/The+Heat/Subtitles/&quot; rel=&quot;nofollow&quot; target=&quot;_NEW&quot;&gt;\nhttp://www.subtitleseeker.com/2404463/The+Heat/Subtitles/&lt;/a&gt;\n\n&amp; or @\n &lt;a href=&quot;\nhttp://subscene.com/subtitles/the-heat&quot; rel=&quot;nofollow&quot; target=&quot;_NEW&quot;&gt;\nhttp://subscene.com/subtitles/the-heat&lt;/a&gt;\n\n\nAll .srt subs can be turned On/Off\n\n\n\n &lt;a href=&quot;\nhttp://www.imdb.com/title/tt2404463/&quot; rel=&quot;nofollow&quot; target=&quot;_NEW&quot;&gt;\nhttp://www.imdb.com/title/tt2404463/&lt;/a&gt;\n\n\n\n---------------------------------------------------------------------------------\n\n\nGeneral Metadata\n\nComplete name : The Heat 2013.Unrated.1080p.BluRay.x264 . NVEE.mp4\nFormat : MPEG-4\nFormat profile : Base Media\nCodec ID : isom\nFile size : 2.46 GiB\nDuration : 2h 0mn\nOverall bit rate : 2 928 Kbps\nEncoded date : UTC 2013-10-15 02:12:55\nTagged date : UTC 2013-10-15 02:12:55\n\n\nVideo\n\nID : 1\nFormat : AVC\nFormat/Info : Advanced Video Codec\nFormat profile : &lt;a class=&quot;__cf_email__&quot; href=&quot;/cdn-cgi/l/email-protection&quot; data-cfemail=&quot;e7af8e808fa7abd3c9d7&quot;&gt;[email&amp;#160;protected]&lt;/a&gt;&lt;script cf-hash='f9e31' type=&quot;text/javascript&quot;&gt;\n/* &lt;![CDATA[ */!function(){try{var t=&quot;currentScript&quot;in document?document.currentScript:function(){for(var t=document.getElementsByTagName(&quot;script&quot;),e=t.length;e--;)if(t[e].getAttribute(&quot;cf-hash&quot;))return t[e]}();if(t&amp;&amp;t.previousSibling){var e,r,n,i,c=t.previousSibling,a=c.getAttribute(&quot;data-cfemail&quot;);if(a){for(e=&quot;&quot;,r=parseInt(a.substr(0,2),16),n=2;a.length-n;n+=2)i=parseInt(a.substr(n,2),16)^r,e+=String.fromCharCode(i);e=document.createTextNode(e),c.parentNode.replaceChild(e,c)}}}catch(u){}}();/* ]]&gt; */&lt;/script&gt;\nFormat settings, CABAC : Yes\nFormat settings, ReFrames : 3 frames\nCodec ID : avc1\nCodec ID/Info : Advanced Video Coding\nDuration : 2h 0mn\nBit rate : 2 413 Kbps\nMaximum bit rate : 11.4 Mbps\nWidth : 1 920 pixels\nHeight : 800 pixels\nDisplay aspect ratio : 2.40:1\nFrame rate mode : Constant\nFrame rate : 23.976 fps\nColor space : YUV\nChroma subsampling : 4:2:0\nBit depth : 8 bits\nScan type : Progressive\nBits/(Pixel*Frame) : 0.066\nStream size : 2.03 GiB (83%)\nTitle : Unrated.1080p.BluRay.x264 .264#trackID=1:fps=&lt;a class=&quot;__cf_email__&quot; href=&quot;/cdn-cgi/l/email-protection&quot; data-cfemail=&quot;3200011c0b05047275627371021c071c031f7677641f40574406000a01&quot;&gt;[email&amp;#160;protected]&lt;/a&gt;&lt;script cf-hash='f9e31' type=&quot;text/javascript&quot;&gt;\n/* &lt;![CDATA[ */!function(){try{var t=&quot;currentScript&quot;in document?document.currentScript:function(){for(var t=document.getElementsByTagName(&quot;script&quot;),e=t.length;e--;)if(t[e].getAttribute(&quot;cf-hash&quot;))return t[e]}();if(t&amp;&amp;t.previousSibling){var e,r,n,i,c=t.previousSibling,a=c.getAttribute(&quot;data-cfemail&quot;);if(a){for(e=&quot;&quot;,r=parseInt(a.substr(0,2),16),n=2;a.length-n;n+=2)i=parseInt(a.substr(n,2),16)^r,e+=String.fromCharCode(i);e=document.createTextNode(e),c.parentNode.replaceChild(e,c)}}}catch(u){}}();/* ]]&gt; */&lt;/script&gt;\nWriting library : x264 core 133 r2334 a3ac64b\nEncoded date : UTC 2013-10-15 02:12:55\nTagged date : UTC 2013-10-15 02:22:45\nColor primaries : BT.709\nTransfer characteristics : BT.709\nMatrix coefficients : BT.709\n\n\nAudio\n\nID : 2\nFormat : AC-3\nFormat/Info : Audio Coding 3\nMode extension : CM (complete main)\nFormat settings, Endianness : Big\nCodec ID : ac-3\nDuration : 2h 0mn\nBit rate mode : Constant\nBit rate : 512 Kbps\nChannel(s) : 6 channels\nChannel positions : Front: L C R, Side: L R, LFE\nSampling rate : 48.0 KHz\nBit depth : 16 bits\nCompression mode : Lossy\nStream size : 441 MiB (17%)\nTitle : Unrated.1080p.BluRay.x264 . NVEE - [0] English_audio.ac3#trackID=1:lang=&lt;a class=&quot;__cf_email__&quot; href=&quot;/cdn-cgi/l/email-protection&quot; data-cfemail=&quot;6e0b002e293e2f2d5e405b405f432a2b38431c0b185a5c565d&quot;&gt;[email&amp;#160;protected]&lt;/a&gt;&lt;script cf-hash='f9e31' type=&quot;text/javascript&quot;&gt;\n/* &lt;![CDATA[ */!function(){try{var t=&quot;currentScript&quot;in document?document.currentScript:function(){for(var t=document.getElementsByTagName(&quot;script&quot;),e=t.length;e--;)if(t[e].getAttribute(&quot;cf-hash&quot;))return t[e]}();if(t&amp;&amp;t.previousSibling){var e,r,n,i,c=t.previousSibling,a=c.getAttribute(&quot;data-cfemail&quot;);if(a){for(e=&quot;&quot;,r=parseInt(a.substr(0,2),16),n=2;a.length-n;n+=2)i=parseInt(a.substr(n,2),16)^r,e+=String.fromCharCode(i);e=document.createTextNode(e),c.parentNode.replaceChild(e,c)}}}catch(u){}}();/* ]]&gt; */&lt;/script&gt;\nLanguage : English\nEncoded date : UTC 2013-10-15 02:20:38\nTagged date : UTC 2013-10-15 02:22:45\n\n\nSynopsis\n\nFBI Special Agent Sarah Ashburn is a very skilled and effective investigator, but is despised by her fellow agents for her arrogance and condescending attitude. Hale, Ashburn's boss at the New York FBI field office who is being promoted, sends her to Boston to investigate a drug kingpin named Larkin with the promise that she would be considered as his replacement if she can solve the case while showing the ability to work effectively with others. Once in Boston, she is partnered with Shannon Mullins, a skilled but foulmouthed and rebellious police officer with the Boston Police Department. Ashburn's by-the-book philosophy clashes with Mullins' rugged and violent style of police work. Mullins discovers the details of the Larkin case by stealing the case file from Ashburn and insists on helping her. Ashburn reluctantly agrees, realizing that she needs Mullins' knowledge of the local area.\nAshburn and Mullins follow leads to a local night club owner and successfully place a bug on his cell phone. As they leave the club, Ashburn and Mullins are confronted by two DEA agents, Craig and Adam, who have been working the Larkin case for several months and are worried that their case will be compromised. After viewing him on a screen in the DEA agents' surveillance van, Ashburn discovers that Mullins' brother, Jason, was recently released from prison, having been put there by Mullins herself, and may be connected to Larkin's organization. Ashburn convinces Mullins to go to her parents' home to ask Jason for information on Larkin. On their arrival at the home, it becomes apparent that Mullins' parents and two other brothers still harbor deep resentment for Mullins' involvement in Jason's incarceration. Jason, who does not have any ill feelings toward his sister, tips her off about the body of a murdered drug dealer hidden in an abandoned car. Upon examination of the body, chemicals on the victim's shoes lead Ashburn and Mullins to an abandoned paint factory, where they witness a drug dealer being murdered by a member of Larkin's organization named Julian. The two apprehend Julian and interrogate him regarding Larkin, but are unable to extract any substantial information regarding Larkin's whereabouts.\n\nEnjoy !","torrent":{"xt":"urn:btih:c9e620f22fda8698b0b300d0cdf56a3842b31e40","amp;dn":"The+Heat+2013.Unrated.1080p.BluRay.x264+.+NVEE","amp;tr":["udp%3A%2F%2Ftracker.openbittorrent.com%3A80","udp%3A%2F%2Fopen.demonii.com%3A1337","udp%3A%2F%2Ftracker.coppersurfer.tk%3A6969","udp%3A%2F%2Fexodus.desync.com%3A6969"],"infoHash":"c9e620f22fda8698b0b300d0cdf56a3842b31e40","infoHashBuffer":{"type":"Buffer","data":[201,230,32,242,47,218,134,152,176,179,0,208,205,245,106,56,66,179,30,64]},"announce":[],"urlList":[]}}